HIERARCHY
ROOT root
{
	OFFSET	0	13.1	24.9
	CHANNELS 6  Xposition Yposition Zposition Xrotation Yrotation Zrotation
	JOINT spine_1
	{
		OFFSET	0	9.99999	0
		CHANNELS 3  Xrotation Yrotation Zrotation
		JOINT spine_2
		{
			OFFSET	0	112	-10
			CHANNELS 3  Xrotation Yrotation Zrotation
			JOINT spine_3
			{
				OFFSET	0	206.5	19.3
				CHANNELS 3  Xrotation Yrotation Zrotation
				JOINT spine_4
				{
					OFFSET	0	110.4	14.6
					CHANNELS 3  Xrotation Yrotation Zrotation
					JOINT neck_1
					{
						OFFSET	0	71.8	-50.3
						CHANNELS 3  Xrotation Yrotation Zrotation
						JOINT neck_2
						{
							OFFSET	0	86.2	-25.8
							CHANNELS 3  Xrotation Yrotation Zrotation
							JOINT head_ee
							{
								OFFSET	0	179.8	-8.7
								CHANNELS 3  Xrotation Yrotation Zrotation
								End Site
								{
									OFFSET	1	0	0
								}
							}
						}
					}
					JOINT left_clavicle
					{
						OFFSET	-43.2	22.4	-70.8
						CHANNELS 3  Xrotation Yrotation Zrotation
						JOINT left_shoulder
						{
							OFFSET	-93.9	-5.79999	48.7
							CHANNELS 3  Xrotation Yrotation Zrotation
							JOINT left_elbow
							{
								OFFSET	-291.4	-30.8	15.2
								CHANNELS 3  Xrotation Yrotation Zrotation
								JOINT left_lowarm_twist
								{
									OFFSET	-110.7	-3.89999	13.6
									CHANNELS 3  Xrotation Yrotation Zrotation
									JOINT left_hand
									{
										OFFSET	-110.7	-3.89999	13.6
										CHANNELS 3  Xrotation Yrotation Zrotation
										JOINT left_ee
										{
											OFFSET	-80.8	-5.10001	12.1
											CHANNELS 3  Xrotation Yrotation Zrotation
											End Site
											{
												OFFSET	1	0	0
											}
										}
									}
								}
							}
						}
					}
					JOINT right_clavicle
					{
						OFFSET	43.2	22.4	-70.8
						CHANNELS 3  Xrotation Yrotation Zrotation
						JOINT right_shoulder
						{
							OFFSET	93.9	-5.79999	48.7
							CHANNELS 3  Xrotation Yrotation Zrotation
							JOINT right_elbow
							{
								OFFSET	291.4	-30.8	15.2
								CHANNELS 3  Xrotation Yrotation Zrotation
								JOINT right_lowarm_twist
								{
									OFFSET	110.7	-3.89999	13.6
									CHANNELS 3  Xrotation Yrotation Zrotation
									JOINT right_hand
									{
										OFFSET	110.7	-3.89999	13.6
										CHANNELS 3  Xrotation Yrotation Zrotation
										JOINT right_ee
										{
											OFFSET	80.8	-5.10001	12.1
											CHANNELS 3  Xrotation Yrotation Zrotation
											End Site
											{
												OFFSET	1	0	0
											}
										}
									}
								}
							}
						}
					}
				}
			}
		}
	}
	JOINT left_hip
	{
		OFFSET	-82.8	-127.5	0.300001
		CHANNELS 3  Xrotation Yrotation Zrotation
		JOINT left_knee
		{
			OFFSET	-28.2	-396.7	2.2
			CHANNELS 3  Xrotation Yrotation Zrotation
			JOINT left_ankle
			{
				OFFSET	-11.7	-411.3	35.4
				CHANNELS 3  Xrotation Yrotation Zrotation
				JOINT left_toes
				{
					OFFSET	0	-60	-88.6
					CHANNELS 3  Xrotation Yrotation Zrotation
					JOINT left_foot_ee
					{
						OFFSET	-22.5	-16.5	-42.2
						CHANNELS 3  Xrotation Yrotation Zrotation
						End Site
						{
							OFFSET	1	0	0
						}
					}
				}
			}
		}
	}
	JOINT right_hip
	{
		OFFSET	82.8	-127.5	0.300001
		CHANNELS 3  Xrotation Yrotation Zrotation
		JOINT right_knee
		{
			OFFSET	28.2	-396.7	2.2
			CHANNELS 3  Xrotation Yrotation Zrotation
			JOINT right_ankle
			{
				OFFSET	11.7	-411.3	35.4
				CHANNELS 3  Xrotation Yrotation Zrotation
				JOINT right_toes
				{
					OFFSET	0	-60	-88.6
					CHANNELS 3  Xrotation Yrotation Zrotation
					JOINT right_foot_ee
					{
						OFFSET	22.5	-16.5	-42.2
						CHANNELS 3  Xrotation Yrotation Zrotation
						End Site
						{
							OFFSET	1	0	0
						}
					}
				}
			}
		}
	}
}
MOTION
Frames: 14
Frame Time: 0.02
2800.94 716.97 -1473.77 -11.7635503262 75.073549706 2.92529391257 2.48825 0.315731 2.6565 2.49217 0.146113 2.6712 2.49831 -0.303164 2.65797 2.48847 0.120262 2.67248 -18.4922 3.43565 -2.91415 -18.5543 8.16903 -1.37014 -0.0 0.0 -0.0 -2.18246 18.7026 -1.09821 2.76977 -34.2505 63.8564 4.08177 -63.6661 2.53472 -32.2572 -2.16785 3.45096 0.906166 4.98567 8.06424 -0.0 0.0 -0.0 7.64427 10.7537 -14.7272 -27.8435 4.1653 -70.5845 0.235396 6.65128 -0.0136786 11.951 -0.265394 1.50081 3.03119 1.10797 -20.2662 0.0 0.0 0.0 -5.54403 -7.91144 17.7737 -22.5925 0.255845 3.43514 41.5779 17.8828 -5.12418 -40.1234 0.0 0.0 -0.0 0.0 -0.0 37.5252 8.23692 6.34436 -1.89501 -0.0733747 -0.28155 14.1304 -18.3071 2.01312 -20.9068 0.0 0.0 0.0 0.0 0.0 
2745.9799736 719.033 -1494.78094558 -20.1019991382 82.229656078 11.6815601436 2.72582 0.012056 2.48271 2.72924 -0.1459 2.47845 2.72201 -0.549558 2.42119 2.71386 -0.160404 2.47755 -16.4946 3.98818 -1.64313 -16.5638 8.58528 -0.11505 -0.0 0.0 -0.0 -2.63783 14.0116 -2.65071 -3.47587 -36.1073 63.7442 3.22336 -57.9294 1.78447 -27.4681 -1.72736 3.02335 1.05013 4.65584 8.89203 -0.0 0.0 -0.0 8.3085 7.96441 -16.2203 -27.148 8.33125 -67.7025 0.316187 8.90209 -0.0246127 11.1975 -0.257962 1.40485 2.93848 -4.12306 -21.643 0.0 0.0 0.0 -6.48327 -8.1998 14.8867 -24.6701 0.211048 3.7508 35.2751 23.4904 -4.64974 -40.1106 0.0 0.0 -0.0 0.0 -0.0 40.8227 9.7374 6.67811 -18.4514 -0.310854 -2.80224 14.1648 -16.7785 2.00837 -19.4017 0.0 0.0 0.0 0.0 0.0 
2746.35989048 719.033 -1495.74898954 -17.8315892235 81.2717868668 9.3874995702 2.72582 0.012056 2.48271 2.72924 -0.1459 2.47845 2.72201 -0.549558 2.42119 2.71386 -0.160404 2.47755 -16.4946 3.98818 -1.64313 -16.5638 8.58528 -0.11505 -0.0 0.0 -0.0 -2.63783 14.0116 -2.65071 -3.47587 -36.1073 63.7442 3.22336 -57.9294 1.78447 -27.4681 -1.72736 3.02335 1.05013 4.65584 8.89203 -0.0 0.0 -0.0 8.3085 7.96441 -16.2203 -27.148 8.33125 -67.7025 0.316187 8.90209 -0.0246127 11.1975 -0.257962 1.40485 2.93848 -4.12306 -21.643 0.0 0.0 0.0 -6.48327 -8.1998 14.8867 -24.6701 0.211048 3.7508 35.2751 23.4904 -4.64974 -40.1106 0.0 0.0 -0.0 0.0 -0.0 40.8227 9.7374 6.67811 -18.4514 -0.310854 -2.80224 14.1648 -16.7785 2.00837 -19.4017 0.0 0.0 0.0 0.0 0.0 
2746.65689505 719.033 -1496.47261776 -16.4295996724 80.5438292802 7.9677008237 2.72582 0.012056 2.48271 2.72924 -0.1459 2.47845 2.72201 -0.549558 2.42119 2.71386 -0.160404 2.47755 -16.4946 3.98818 -1.64313 -16.5638 8.58528 -0.11505 -0.0 0.0 -0.0 -2.63783 14.0116 -2.65071 -3.47587 -36.1073 63.7442 3.22336 -57.9294 1.78447 -27.4681 -1.72736 3.02335 1.05013 4.65584 8.89203 -0.0 0.0 -0.0 8.3085 7.96441 -16.2203 -27.148 8.33125 -67.7025 0.316187 8.90209 -0.0246127 11.1975 -0.257962 1.40485 2.93848 -4.12306 -21.643 0.0 0.0 0.0 -6.48327 -8.1998 14.8867 -24.6701 0.211048 3.7508 35.2751 23.4904 -4.64974 -40.1106 0.0 0.0 -0.0 0.0 -0.0 40.8227 9.7374 6.67811 -18.4514 -0.310854 -2.80224 14.1648 -16.7785 2.00837 -19.4017 0.0 0.0 0.0 0.0 0.0 
2747.03797256 719.033 -1497.36312979 -14.9687021091 79.6357158524 6.48472347708 2.72582 0.012056 2.48271 2.72924 -0.1459 2.47845 2.72201 -0.549558 2.42119 2.71386 -0.160404 2.47755 -16.4946 3.98818 -1.64313 -16.5638 8.58528 -0.11505 -0.0 0.0 -0.0 -2.63783 14.0116 -2.65071 -3.47587 -36.1073 63.7442 3.22336 -57.9294 1.78447 -27.4681 -1.72736 3.02335 1.05013 4.65584 8.89203 -0.0 0.0 -0.0 8.3085 7.96441 -16.2203 -27.148 8.33125 -67.7025 0.316187 8.90209 -0.0246127 11.1975 -0.257962 1.40485 2.93848 -4.12306 -21.643 0.0 0.0 0.0 -6.48327 -8.1998 14.8867 -24.6701 0.211048 3.7508 35.2751 23.4904 -4.64974 -40.1106 0.0 0.0 -0.0 0.0 -0.0 40.8227 9.7374 6.67811 -18.4514 -0.310854 -2.80224 14.1648 -16.7785 2.00837 -19.4017 0.0 0.0 0.0 0.0 0.0 
2715.20015347 722.462 -1500.50930301 -16.4714731622 80.7279671133 7.17755989094 2.7867 0.0611615 2.52825 2.79025 -0.0997892 2.52702 2.78486 -0.50927 2.47721 2.77632 -0.11178 2.52652 -15.7766 4.12076 -2.56418 -15.8428 9.38267 -0.989826 -0.0 0.0 -0.0 -2.66723 13.0247 -2.8796 -6.18432 -36.7382 64.7249 2.8585 -54.7595 1.48065 -26.6154 -1.65277 2.94345 1.12975 3.83575 9.1013 -0.0 0.0 -0.0 8.45979 7.53419 -16.5482 -28.2382 9.03814 -67.0365 0.314631 8.85897 -0.0243724 10.8951 -0.254625 1.36637 2.94876 -4.54571 -21.8733 0.0 0.0 0.0 -7.46876 -7.34399 15.1315 -26.43 0.164166 4.01681 34.1985 24.0314 -4.55007 -40.1635 0.0 0.0 -0.0 0.0 -0.0 40.4475 11.5209 8.25031 -23.0363 -0.247238 -3.5027 13.1283 -16.6903 1.86803 -19.0616 0.0 0.0 0.0 0.0 0.0 
2635.69515035 729.765 -1517.39601276 -8.07619299323 84.3690840259 -2.21902250191 2.80703 0.520267 2.6648 2.81091 0.349707 2.69248 2.82643 -0.0902361 2.71358 2.81632 0.339297 2.69381 -14.3456 3.5606 -2.247 -14.384 8.15692 -0.988217 -0.0 0.0 -0.0 -2.977 8.67693 -4.21425 -13.1674 -39.8659 66.2672 1.65438 -39.3326 0.591293 -22.201 -1.2862 2.51277 1.52599 1.96384 11.031 -0.0 0.0 -0.0 8.97969 5.28022 -17.6601 -26.5088 15.7066 -64.9973 0.396284 11.1066 -0.0385299 9.49587 -0.23654 1.18856 2.88789 -9.95756 -23.3421 0.0 0.0 0.0 -7.79583 -3.56871 12.8993 -31.1977 -0.00366717 4.72904 21.3024 27.7873 -3.0912 -40.1797 0.0 0.0 -0.0 0.0 -0.0 35.2434 14.0851 7.06125 -31.305 0.00812654 -4.7449 8.04288 -12.6823 1.15457 -20.3348 0.0 0.0 0.0 0.0 0.0 
2636.02539309 729.765 -1518.62824062 -7.50949838833 83.945349549 -2.78867253202 2.80703 0.520267 2.6648 2.81091 0.349707 2.69248 2.82643 -0.0902361 2.71358 2.81632 0.339297 2.69381 -14.3456 3.5606 -2.247 -14.384 8.15692 -0.988217 -0.0 0.0 -0.0 -2.977 8.67693 -4.21425 -13.1674 -39.8659 66.2672 1.65438 -39.3326 0.591293 -22.201 -1.2862 2.51277 1.52599 1.96384 11.031 -0.0 0.0 -0.0 8.97969 5.28022 -17.6601 -26.5088 15.7066 -64.9973 0.396284 11.1066 -0.0385299 9.49587 -0.23654 1.18856 2.88789 -9.95756 -23.3421 0.0 0.0 0.0 -7.79583 -3.56871 12.8993 -31.1977 -0.00366717 4.72904 21.3024 27.7873 -3.0912 -40.1797 0.0 0.0 -0.0 0.0 -0.0 35.2434 14.0851 7.06125 -31.305 0.00812654 -4.7449 8.04288 -12.6823 1.15457 -20.3348 0.0 0.0 0.0 0.0 0.0 
2620.34356925 734.381 -1522.9927921 -9.67337655946 84.6804461932 -0.431963155513 2.81867 0.780135 2.71189 2.82256 0.606057 2.75599 2.8509 0.15398 2.81759 2.84032 0.596862 2.75799 -13.9222 4.06934 -1.64358 -13.9716 8.76605 -0.284204 -0.0 0.0 -0.0 -2.98108 7.85121 -4.37453 -14.5793 -39.3408 66.2666 1.41753 -35.0747 0.447983 -21.3236 -1.21737 2.4239 1.49378 2.79061 11.1383 -0.0 0.0 -0.0 9.1452 5.4882 -18.0104 -24.5257 18.2496 -63.9043 0.454226 12.6811 -0.0504728 9.371 -0.234715 1.17271 3.02485 -11.5991 -24.8433 0.0 0.0 0.0 -5.39018 -2.51547 11.4057 -35.8133 -0.222118 5.40331 16.4175 28.0648 -2.43288 -40.0929 0.0 0.0 -0.0 0.0 -0.0 33.6228 14.2559 5.70751 -30.0063 -0.0438247 -4.55238 8.53094 -7.2288 1.21873 -20.854 0.0 0.0 0.0 0.0 0.0 
2605.6848557 739.694 -1525.49484204 -5.79216531182 85.3058360932 -3.97087472939 2.90519 0.949132 2.79366 2.90921 0.769515 2.84834 2.94658 0.30554 2.93452 2.93538 0.76497 2.84956 -14.6579 3.54635 -1.99339 -14.6993 7.97133 -0.730485 -0.0 0.0 -0.0 -3.07278 7.49747 -4.60504 -15.8633 -40.6903 66.8833 1.20023 -30.7328 0.329853 -20.538 -1.15691 2.34346 1.59563 2.59669 11.7517 -0.0 0.0 -0.0 9.43283 5.55991 -18.6206 -23.4259 19.9259 -63.2898 0.545101 15.1112 -0.0723025 8.87163 -0.227071 1.10939 2.93104 -12.7281 -24.5357 0.0 0.0 0.0 -6.02008 -2.23062 10.2665 -35.179 -0.18888 5.3117 14.4769 28.5126 -2.16664 -40.1495 0.0 0.0 -0.0 0.0 -0.0 32.1303 14.1458 4.64097 -29.107 -0.0772319 -4.41841 7.74121 -4.44798 1.11082 -21.6449 0.0 0.0 0.0 0.0 0.0 
2593.50140761 742.781 -1525.74032803 -5.93692923023 86.0783731655 -3.36167931723 2.9738 0.697164 2.87412 2.97825 0.512944 2.91261 3.00312 0.0445785 2.95706 2.99128 0.510831 2.91298 -14.3319 3.2324 -2.76003 -14.3588 7.84119 -1.58182 -0.0 0.0 -0.0 -3.19136 7.13522 -4.88725 -17.1401 -40.8491 67.6636 1.029 -27.0089 0.247132 -19.8506 -1.10492 2.2724 1.60441 4.03843 12.3714 -0.0 0.0 -0.0 9.44549 6.81337 -18.6526 -22.9995 21.7569 -62.6221 0.790919 21.3951 -0.149413 8.05033 -0.213301 1.00538 3.11057 -14.3066 -26.276 0.0 0.0 0.0 -5.49844 0.071627 8.15066 -36.3507 -0.251072 5.48064 11.0885 26.4727 -1.65705 -40.1227 0.0 0.0 -0.0 0.0 -0.0 31.0283 14.0496 3.46324 -28.8588 -0.0860812 -4.38135 7.64514 -3.48392 1.09869 -21.4085 0.0 0.0 0.0 0.0 0.0 
2594.98469314 742.781 -1531.33818728 -4.2579441399 84.5327280092 -5.04616178902 2.9738 0.697164 2.87412 2.97825 0.512944 2.91261 3.00312 0.0445785 2.95706 2.99128 0.510831 2.91298 -14.3319 3.2324 -2.76003 -14.3588 7.84119 -1.58182 -0.0 0.0 -0.0 -3.19136 7.13522 -4.88725 -17.1401 -40.8491 67.6636 1.029 -27.0089 0.247132 -19.8506 -1.10492 2.2724 1.60441 4.03843 12.3714 -0.0 0.0 -0.0 9.44549 6.81337 -18.6526 -22.9995 21.7569 -62.6221 0.790919 21.3951 -0.149413 8.05033 -0.213301 1.00538 3.11057 -14.3066 -26.276 0.0 0.0 0.0 -5.49844 0.071627 8.15066 -36.3507 -0.251072 5.48064 11.0885 26.4727 -1.65705 -40.1227 0.0 0.0 -0.0 0.0 -0.0 31.0283 14.0496 3.46324 -28.8588 -0.0860812 -4.38135 7.64514 -3.48392 1.09869 -21.4085 0.0 0.0 0.0 0.0 0.0 
2584.16738722 748.731 -1537.72149705 -8.55944754448 84.1752993057 -0.487714853795 3.06284 0.679096 3.08218 3.06799 0.48169 3.1191 3.09265 -0.0141479 3.15601 3.07908 0.484216 3.11871 -13.8575 3.16604 -2.62775 -13.8808 7.64766 -1.50947 -0.0 0.0 -0.0 -3.29445 6.96787 -5.10605 -17.5417 -40.2423 68.5273 0.848818 -22.8056 0.171198 -19.3102 -1.06466 2.21612 1.73082 3.86287 13.1603 -0.0 0.0 -0.0 9.43445 6.13864 -18.6275 -19.3294 23.3411 -62.3634 1.01462 26.6842 -0.24064 7.94692 -0.211461 0.992297 2.96933 -14.6463 -25.3828 0.0 0.0 0.0 -3.18565 -0.434169 6.67598 -36.9664 -0.285139 5.56891 8.99461 27.4198 -1.36057 -40.1632 0.0 0.0 -0.0 0.0 -0.0 30.4444 13.7781 2.729 -27.9458 -0.11725 -4.24469 7.31885 0.806021 1.06224 -22.2069 0.0 0.0 0.0 0.0 0.0 
2586.25918455 748.731 -1544.42626019 -6.56643967659 82.4099162273 -2.49421680964 3.06284 0.679096 3.08218 3.06799 0.48169 3.1191 3.09265 -0.0141479 3.15601 3.07908 0.484216 3.11871 -13.8575 3.16604 -2.62775 -13.8808 7.64766 -1.50947 -0.0 0.0 -0.0 -3.29445 6.96787 -5.10605 -17.5417 -40.2423 68.5273 0.848818 -22.8056 0.171198 -19.3102 -1.06466 2.21612 1.73082 3.86287 13.1603 -0.0 0.0 -0.0 9.43445 6.13864 -18.6275 -19.3294 23.3411 -62.3634 1.01462 26.6842 -0.24064 7.94692 -0.211461 0.992297 2.96933 -14.6463 -25.3828 0.0 0.0 0.0 -3.18565 -0.434169 6.67598 -36.9664 -0.285139 5.56891 8.99461 27.4198 -1.36057 -40.1632 0.0 0.0 -0.0 0.0 -0.0 30.4444 13.7781 2.729 -27.9458 -0.11725 -4.24469 7.31885 0.806021 1.06224 -22.2069 0.0 0.0 0.0 0.0 0.0 
